<svg id="Layer_1" data-name="Layer 1" xmlns="http://www.w3.org/2000/svg" viewBox="0 0 710.56 788"><defs><style>.cls-1{fill:#c12f00;}.cls-2{fill:#fff;}</style></defs><title>whitelogo</title><polygon class="cls-1" points="376.57 351.75 291.78 427.8 400.03 463.21 376.57 351.75"/><polyline class="cls-2" points="399.24 472 133.88 384.93 0 617 429.08 616.47 399.24 472"/><polyline class="cls-2" points="279.33 422.25 489.68 234.41 354.62 0 137.99 375.22 279.33 422.25"/><polyline class="cls-2" points="387.22 344.68 443.75 617 710.56 617.41 497.14 247.21 387.22 344.68"/><path class="cls-2" d="M56.47,729.5h18.6v4.26H56.47Zm51.14-77.16h23.84q.5,2.08,23.25,77.36H159v46.59h-9.79V780H159v10H132.64V761.26H100.39v12.16H87.33V794H63.39v-1.38h1.88v-19.2h9.8V733.76h8.11ZM70.52,766h.79c.53,0,1.38,2.17,2.57,6.52H72.5a8.81,8.81,0,0,0-.5-1.48H69.82c-.13,1-.36,1.48-.69,1.48H67.94Q70,766,70.52,766Zm.29,2.17c-.33,1.06-.49,1.62-.49,1.68h1.19l-.5-1.68Zm5.74-41.55h2.18a1.74,1.74,0,0,0,.89,1.49,2,2,0,0,1,1-1.49h1.68v.2a13.51,13.51,0,0,0-1.68,2.67,17.33,17.33,0,0,0,1.88,2.87v.5H81.6q-1.39,0-2-2a9.08,9.08,0,0,1-1.68,2H76.75a.44.44,0,0,1-.5-.5q.3,0,2-2.67v-.39A18.25,18.25,0,0,1,76.55,726.63Zm31.06,36.51v1.28c0,.27-1.28.79-3.86,1.59v.29l3.86,1.39v1.48l-6-2.18v-1.68Zm11.18-70.93v.3q-3.06,16.82-11.87,53.22h22.16v-16H127.2q-7.92-34.43-7.91-37.49Zm4.35,46.59h1.39v2.38l2.67-2.38h1.38v.3l-2.07,2.37a19.63,19.63,0,0,1,2.37,3.76H127.4a14.53,14.53,0,0,1-2.18-2.57q-.3,0-.69.69v1.88h-1.39Zm9.5,52.83h31.85V794H132.64Zm27-42.34h4.55c.32.06.49.23.49.49v.5a.43.43,0,0,1-.49.49h-1.39v5.05h-1.68v-5.05h-1.48c-.34,0-.5-.16-.5-.49v-.5C159.21,749.45,159.38,749.29,159.65,749.29Zm-.5,8.41h1.19c.46,0,.95,1.35,1.48,4h.2a27.65,27.65,0,0,0,1.19-4h1.68c-1.26,4.28-2,6.43-2.38,6.43h-1.38Zm.5-25.13h5v1.19l-3.07,3.85h2.87a.49.49,0,0,1,.4.5v.49c0,.33-.14.5-.4.5h-5v-1.19l3.06-3.86h-2.86ZM162.32,766H163q2.37,0,2.87,3.36c-.46,2.24-1.49,3.36-3.07,3.36q-3.36-.59-3.36-3.36C159.78,767.13,160.73,766,162.32,766Zm-2.18-25H163c1.45.2,2.17.92,2.17,2.17l-.69,1.19a4.48,4.48,0,0,1,.69,2.87v.2H163.7c-.13-1.58-.36-2.38-.69-2.38h-1.68v2.38h-1.19a.44.44,0,0,1-.49-.5v-5.44C159.71,741.14,159.88,741,160.14,741Zm1,28.19v.2a2.16,2.16,0,0,0,1.19,2H163a2.18,2.18,0,0,0,1.19-2v-.2c-.14-1.25-.7-1.88-1.69-1.88A1.87,1.87,0,0,0,161.13,769.17Zm.2-26.81v1.49H163a.44.44,0,0,0,.49-.5v-1Z" transform="translate(-43.96 -6)"/><path class="cls-2" d="M169.14,652.54h48.47q24.34,0,31.46,17.12a61.3,61.3,0,0,1,3.07,20.18v5.93q0,20.58-9,31.36H232.85v5.24h15.73V766.2h-9.3v5.25h14v20H223.85V759.48H212.47V738.8H192.68v35h4.26V794h-27.3c-.34,0-.5-.16-.5-.49V736.72h12.17v-4.05H169.14ZM193.87,740h1.19a1.58,1.58,0,0,1,1,1.48c.26,0,.56-.49.89-1.48h1.48v.3l-1.48,2.07a17.91,17.91,0,0,0,1.68,2.67v.2h-1.19q-.19,0-1.38-1.68c-.46,1.06-.86,1.62-1.19,1.68h-1.19a11.8,11.8,0,0,0,1.59-2.87Zm.2,7.12h4.35v.79l-2.67,3.27h2.67v1.18h-4.55v-.89l2.57-3.36h-2.37Zm2.87-71.52v40h6.73q15.14,0,17.5-2.87,2.47-1.59,3.86-6.43h10.49v-5H226v.5c-.53,3-.92,4.55-1.19,4.55H211.28v-5h14.25c.33,0,.49-.13.49-.39q.19-6.14.2-6.93,0-13.25-4.55-16.22-3.57-2.08-13.06-2.08Z" transform="translate(-43.96 -6)"/><path class="cls-2" d="M252.14,652.25h83.09v23.64h-27.5v98h12.46v2.87H307.73v10.78h-7.42v3.76h5.24V794H280.33a.44.44,0,0,1-.5-.49V675.89H252.14Zm45.8,121.67v2.87h9.59v-2.87Z" transform="translate(-43.96 -6)"/><path class="cls-2" d="M337.21,652.25h26.71a.46.46,0,0,1,.39.49v68.85c0,.33-.13.49-.39.49h-3.17v71.43a.43.43,0,0,1-.49.49H337.21a.44.44,0,0,1-.5-.49V720.4h-7.12a.43.43,0,0,1-.49-.49v-3.07c.06-.33.23-.49.49-.49h7.12V652.74C336.78,652.41,336.94,652.25,337.21,652.25Zm-.3,64.1v4h13.65v-4Z" transform="translate(-43.96 -6)"/><path class="cls-2" d="M373,762.94h.79c.92,0,1.55.66,1.88,2l1.68-2h1.19v.49c-1.12,1.52-1.68,2.58-1.68,3.17.19,0,.82.86,1.88,2.57v.3h-1.39a9.08,9.08,0,0,1-1.68-2c-.59,1.19-1.09,1.85-1.48,2h-1.39c1.12-2,1.85-3,2.18-3.17A12.91,12.91,0,0,1,373,762.94Zm2.47-8.31h.2c1.71,0,2.57.73,2.57,2.18h-1.58c0-.66-.4-1-1.19-1-.26,0-.53.23-.79.69,2.37.92,3.56,1.58,3.56,2a1.72,1.72,0,0,0,.3.69c0,1.19-1,1.91-2.87,2.18-1.78-.27-2.67-1.09-2.67-2.48h1.68c0,.66.16,1,.49,1h1.19a.44.44,0,0,0,.5-.49v-.5c-2.38-.59-3.56-1.22-3.56-1.88v-.89A2.39,2.39,0,0,1,375.49,754.63Zm-2-8.31h1a.44.44,0,0,1,.5.49v3.27c.06,1,.29,1.48.69,1.48h1q.3,0,.69-.69v-4.06c.07-.32.23-.49.5-.49h.89v4.55c0,1.39-1,2.08-2.87,2.08-1.59-.2-2.38-.89-2.38-2.08Zm2.38-94H447v23.55H404.08v33.63h37l.49.3-.3.49q-.19,7.13-.19,8.31H437v.2q0,2.56-.49,11h3.76c0,2.7-.24,4.06-.7,4.06h-26v4.84H400v2.57h4.06v12.37h13.55v2.18H404.08v34.32l-.2,1.68H389.24V794H376.38a.43.43,0,0,1-.49-.49v-3.57l.29-2.37h6.93V784h-7.22V770.36h3.36V720.3H385v-3.56h-9.1Zm15,101.3v2.18h13v-2.18Zm13.65-4.95h.2a21.76,21.76,0,0,0,4.35,1.69v1.38l-4.35,1.48h-.2v-.79c0-.19,1-.66,2.87-1.38v-.2a12.73,12.73,0,0,1-2.87-1Z" transform="translate(-43.96 -6)"/><path class="cls-2" d="M447.41,729.5H466v4.26H447.41Zm51.14-77.16h23.84q.5,2.08,23.25,77.36h4.25v46.59H540.1V780h9.79v10H523.58V761.26H491.33v12.16H478.27V794H454.33v-1.38h1.88v-19.2H466V733.76h8.12ZM461.45,766h.8q.78,0,2.57,6.52h-1.39a8.27,8.27,0,0,0-.49-1.48h-2.18c-.13,1-.36,1.48-.69,1.48h-1.19C460.27,768.18,461.12,766,461.45,766Zm.3,2.17c-.33,1.06-.49,1.62-.49,1.68h1.18l-.49-1.68Zm5.74-41.55h2.17a1.75,1.75,0,0,0,.9,1.49,2,2,0,0,1,1-1.49h1.69v.2a13.3,13.3,0,0,0-1.69,2.67,18,18,0,0,0,1.88,2.87v.5h-.89c-.92,0-1.58-.66-2-2a8.64,8.64,0,0,1-1.69,2h-1.18a.44.44,0,0,1-.5-.5q.3,0,2-2.67v-.39A18.25,18.25,0,0,1,467.49,726.63Zm31.06,36.51v1.28c0,.27-1.29.79-3.86,1.59v.29l3.86,1.39v1.48l-6-2.18v-1.68Zm11.18-70.93v.3q-3.08,16.82-11.87,53.22H520v-16h-1.88q-7.92-34.43-7.92-37.49Zm4.35,46.59h1.39v2.38l2.67-2.38h1.38v.3l-2.08,2.37a19.42,19.42,0,0,1,2.38,3.76h-1.49a15.34,15.34,0,0,1-2.17-2.57q-.3,0-.69.69v1.88h-1.39Zm9.5,52.83h31.85V794H523.58Zm27-42.34h4.55c.33.06.5.23.5.49v.5a.44.44,0,0,1-.5.49h-1.38v5.05h-1.68v-5.05h-1.49a.43.43,0,0,1-.49-.49v-.5C550.15,749.45,550.32,749.29,550.58,749.29Zm-.49,8.41h1.19c.46,0,1,1.35,1.48,4h.2a26.89,26.89,0,0,0,1.18-4h1.69c-1.26,4.28-2.05,6.43-2.38,6.43h-1.38Zm.49-25.13h5v1.19l-3.07,3.85h2.87a.49.49,0,0,1,.4.5v.49c0,.33-.14.5-.4.5h-5v-1.19l3.07-3.86h-2.87ZM553.25,766h.7q2.37,0,2.86,3.36-.69,3.36-3.06,3.36c-2.24-.39-3.37-1.51-3.37-3.36Q550.88,766,553.25,766Zm-2.17-25H554c1.45.2,2.17.92,2.17,2.17l-.69,1.19a4.48,4.48,0,0,1,.69,2.87v.2h-1.48c-.13-1.58-.36-2.38-.69-2.38h-1.69v2.38h-1.18a.44.44,0,0,1-.5-.5v-5.44C550.65,741.14,550.81,741,551.08,741Zm1,28.19v.2a2.17,2.17,0,0,0,1.18,2h.7a2.17,2.17,0,0,0,1.18-2v-.2c-.13-1.25-.69-1.88-1.68-1.88A1.87,1.87,0,0,0,552.07,769.17Zm.19-26.81v1.49H554a.44.44,0,0,0,.49-.5v-1Z" transform="translate(-43.96 -6)"/><path class="cls-2" d="M611.82,652.25q29.67,0,37.39,18.49,2.17,4.56,2.17,6H638.92v3.76h13.35v-.2a13,13,0,0,0-.89-3.56h22.85v3.76H652.57v.29A129,129,0,0,1,654.94,698q0,.49-26,1.88v-.2q0-23.64-16.22-23.64h-2.77q-12.18,0-14.84,10.28-2.18,8.72-2.18,22.86v19.29l-.2,2.86h-9v4.55h9v34.33h38.19V734.45h21.86v35.71H640.6v22H615.18V794H595.39v-1.88H575.31v-11h13.36v-4.75h-20V760.17h-8.61v-20h4.55q-.3-12.47-.3-19.59,0-32.34,3.17-40.76A40.89,40.89,0,0,1,577,663.13Q588.77,652.24,611.82,652.25ZM594.6,763h1.19V768h2.87v1.49H594.6c-.26,0-.39-.17-.39-.5v-5.44C594.21,763.2,594.34,763,594.6,763Zm29.78,0h1.48a2.66,2.66,0,0,1,1.19,1.88,8.89,8.89,0,0,0,1.68-1.88h1.19v.49c-1.12,1.45-1.68,2.48-1.68,3.07.19,0,.82.86,1.88,2.57v.3h-1.39l-1.68-1.88c-.59,1.12-1.06,1.75-1.39,1.88h-1.48a30.61,30.61,0,0,1,2.18-3.37l-2-2.86Zm19.58,8.6c1.59.4,2.38.86,2.38,1.39v1h-1l-.89-1h-1c-.33.07-.49.23-.49.49v.5c2.43.46,3.66,1,3.66,1.58v.79c0,1.26-.73,1.88-2.18,1.88h-1a2.36,2.36,0,0,1-2.08-1.38v-1h1.39c0,.79.46,1.18,1.38,1.18h.3q.3,0,.69-.69,0-.3-3.36-1.68l-.2-.49V773C641.59,772.5,642.38,772,644,771.64Z" transform="translate(-43.96 -6)"/><path class="cls-2" d="M657.12,652.25h83.1v23.64H712.71v98h12.47v2.87H712.71v10.78H705.3v3.76h5.24V794H685.31a.43.43,0,0,1-.49-.49V675.89h-27.7Zm45.8,121.67v2.87h9.6v-2.87Z" transform="translate(-43.96 -6)"/></svg>